<?xml version="1.0" encoding="UTF-8" standalone="no"?>
<!DOCTYPE svg PUBLIC "-//W3C//DTD SVG 1.1//EN" "http://www.w3.org/Graphics/SVG/1.1/DTD/svg11.dtd">
<svg width="100%" height="100%" viewBox="0 0 33 32" version="1.1" xmlns="http://www.w3.org/2000/svg" xmlns:xlink="http://www.w3.org/1999/xlink" xml:space="preserve" style="fill-rule:evenodd;clip-rule:evenodd;stroke-linejoin:round;stroke-miterlimit:1.41421;">
    <path d="M16.29,0C16.284,0 16.279,0 16.273,0C7.337,0 -0.017,7.354 -0.017,16.29C-0.017,23.291 4.496,29.544 11.14,31.75C11.95,31.9 12.25,31.4 12.25,30.96C12.25,30.52 12.25,29.55 12.25,28.19C7.7,29.18 6.74,26 6.74,26C6.44,25.016 5.798,24.172 4.93,23.62C3.45,22.62 5.04,22.62 5.04,22.62C6.088,22.763 7.012,23.384 7.54,24.3C8.149,25.406 9.316,26.095 10.579,26.095C11.175,26.095 11.761,25.942 12.28,25.65C12.344,24.828 12.699,24.055 13.28,23.47C9.7,23.08 5.9,21.68 5.9,15.44C5.878,13.822 6.48,12.256 7.58,11.07C7.084,9.666 7.141,8.124 7.74,6.76C8.339,5.396 9.11,6.32 12.22,8.43C14.891,7.698 17.709,7.698 20.38,8.43C23.49,6.32 24.86,6.76 24.86,6.76C25.454,8.126 25.504,9.668 25,11.07C26.097,12.257 26.696,13.823 26.67,15.44C26.67,21.7 22.86,23.07 19.23,23.44C20.013,24.234 20.417,25.328 20.34,26.44C20.34,28.62 20.34,30.37 20.34,30.91C20.34,31.45 20.63,31.85 21.46,31.69C28.015,29.43 32.441,23.223 32.441,16.289C32.441,7.406 25.174,0.076 16.29,0L16.29,0Z" style="fill:white;"/>
</svg>
